# Blender v2.90.0 OBJ File: ''
# www.blender.org
mtllib spotleastfinecentered.mtl
o spotleastfine
v -0.121582 0.874781 -0.296726
v -0.267216 0.863754 -0.258521
v -0.114956 0.877768 -0.245396
v -0.137574 0.960885 -0.275438
v -0.267676 0.830570 -0.218620
v -0.229870 0.803129 -0.293104
v -0.248373 0.853652 -0.285618
v -0.099742 0.526186 -0.210867
v -0.088320 0.606634 -0.115697
v -0.163465 0.656706 -0.202920
v -0.138195 0.580466 -0.025849
v -0.084181 0.601789 0.039550
v -0.191270 0.424490 -0.122778
v -0.225813 0.390834 -0.006506
v -0.168262 0.314829 -0.186986
v -0.084465 0.444866 -0.223132
v -0.115038 0.149350 0.245289
v -0.187494 0.194673 0.238028
v -0.089261 0.159911 0.226326
v -0.230729 0.299787 0.043594
v -0.203310 0.210355 0.039442
v -0.007707 0.891044 -0.212466
v 0.102619 0.876566 -0.245359
v 0.041247 0.909386 -0.260443
v 0.129269 0.972817 -0.272010
v 0.075171 0.612618 -0.508275
v -0.130647 0.611112 -0.499956
v 0.125723 0.760611 -0.405696
v 0.076449 0.603210 0.041181
v -0.009128 0.628565 -0.094157
v 0.099413 0.006051 0.366929
v 0.115282 0.026536 0.279006
v 0.167327 0.046933 0.301653
v 0.080684 0.059032 0.401649
v 0.051963 0.034238 0.316220
v 0.147037 0.021447 -0.163803
v 0.197372 0.104581 -0.170706
v 0.186166 0.046752 -0.076305
v 0.074964 0.608389 -0.115824
v 0.112458 0.509904 0.317510
v 0.110200 0.455993 0.387933
v 0.185993 0.409491 0.293782
v 0.126208 0.517411 0.150779
v 0.055415 0.557224 0.166329
v -0.130656 0.789237 -0.187998
v -0.158155 0.755038 -0.200711
v -0.111955 0.691152 -0.118195
v 0.071344 0.698258 -0.102791
v -0.049647 0.714338 -0.093654
v -0.007446 0.850835 -0.152412
v -0.165830 0.807545 -0.326293
v -0.097606 0.030406 -0.127225
v -0.052578 0.197619 -0.121209
v -0.067846 0.174367 -0.082791
v -0.205290 0.039662 -0.115094
v -0.158494 0.037285 -0.175021
v -0.182090 0.611379 -0.470157
v -0.154732 0.533908 -0.438375
v -0.003780 0.877046 -0.378035
v -0.135616 0.707646 -0.434747
v -0.144538 0.796455 -0.399099
v 0.254631 0.864594 -0.259770
v 0.225577 0.845160 -0.295792
v 0.112805 0.875203 -0.272767
v 0.145607 0.838531 -0.321619
v 0.260293 0.830999 -0.215885
v 0.160807 0.764414 -0.276501
v 0.110314 0.856103 -0.370037
v 0.157672 0.814246 -0.328435
v 0.080848 0.900509 -0.318164
v -0.008334 0.913615 -0.317236
v -0.106064 0.883301 -0.327942
v -0.192282 0.594924 -0.359928
v -0.140998 0.508706 -0.379149
v -0.074311 0.236365 -0.174475
v 0.041333 0.184344 -0.106920
v -0.037106 0.304854 -0.224470
v 0.101250 0.078451 -0.178362
v 0.073980 0.031203 -0.107186
v 0.135293 0.013276 -0.033781
v 0.094497 0.169897 0.018233
v 0.080322 0.164093 -0.026118
v 0.149383 0.171926 0.003202
v 0.060635 0.167052 -0.063047
v 0.053738 0.173467 -0.052102
v 0.117719 0.510130 -0.393133
v -0.047372 0.488743 -0.378208
v 0.071629 0.518499 -0.459462
v -0.007134 0.484612 -0.272964
v 0.136629 0.762368 -0.191976
v 0.184585 0.594221 -0.360603
v 0.189145 0.579012 -0.437020
v 0.137190 0.674869 -0.165891
v 0.087428 0.519647 -0.209749
v 0.152090 0.314593 -0.187014
v 0.184005 0.430996 -0.114557
v 0.042465 0.321507 -0.235556
v 0.062589 0.240976 -0.174675
v -0.044485 0.169614 -0.036085
v -0.216399 0.164072 -0.162899
v -0.215767 0.214782 -0.025556
v -0.146414 0.179292 0.099146
v -0.157668 0.039396 -0.029901
v -0.131732 0.171798 0.010632
v -0.078873 0.021682 -0.082132
v -0.104123 0.138490 0.120806
v 0.162068 0.061685 0.400138
v 0.124446 0.578470 -0.014330
v 0.199367 0.391859 0.178228
v 0.177969 0.195204 0.240137
v 0.128224 0.277202 0.410820
v 0.179771 0.273614 0.362248
v 0.169778 0.390685 0.365207
v 0.049271 0.405192 0.453479
v 0.180923 0.134608 0.384883
v 0.080191 0.160235 0.236021
v 0.197261 0.211075 0.009610
v 0.003348 0.123057 0.135756
v 0.118386 0.159438 0.109491
v 0.189644 0.205269 0.166886
v 0.215159 0.396853 -0.003081
v 0.210856 0.208258 -0.149900
v -0.124539 0.028065 0.278588
v -0.180852 0.042145 0.319384
v -0.124408 0.009331 0.373728
v -0.073857 0.027805 0.308473
v 0.036744 0.232197 0.409773
v -0.007454 0.383393 0.457949
v 0.031445 0.162465 0.291403
v -0.030471 0.190177 0.346789
v -0.053538 0.156493 0.267653
v -0.051191 0.232481 0.409556
v -0.135923 0.274125 0.411484
v -0.138722 0.063019 0.410257
v -0.067815 0.039882 0.375294
v -0.194621 0.134098 0.388626
v -0.189473 0.273657 0.361606
v -0.077477 0.554866 0.161930
v -0.159567 0.493696 0.144535
v -0.126577 0.492945 0.334770
v -0.196637 0.411314 0.301953
v -0.213984 0.376364 0.191454
v -0.175941 0.400679 0.368705
v -0.074163 0.405815 0.443445
v -0.018998 0.386771 0.491447
v -0.005279 0.416207 0.466331
v -0.049284 0.551112 0.313832
v -0.023427 0.492362 0.407723
v 0.030641 0.546780 0.312542
v 0.146463 0.604188 -0.487522
v 0.110033 0.960719 -0.286084
v 0.074272 0.989690 -0.259048
v -0.117783 0.945498 -0.314274
v -0.054738 0.906985 -0.261230
v -0.084397 0.974451 -0.262196
v -0.118699 0.977858 -0.277548
vn -0.0876 0.9951 -0.0466
vn -0.9672 -0.2136 0.1373
vn -0.1249 0.7635 0.6336
vn -0.8944 -0.2753 -0.3525
vn -0.7935 -0.4145 0.4456
vn -0.4078 0.9122 0.0393
vn -0.8240 0.4776 -0.3048
vn -0.9031 0.4017 -0.1520
vn -0.6876 0.2540 -0.6802
vn -0.3004 -0.5992 -0.7421
vn -0.9541 -0.2950 0.0527
vn 0.2723 0.7728 0.5733
vn -0.0812 0.2868 0.9545
vn -0.0372 0.5778 -0.8153
vn -0.0106 0.9816 0.1906
vn 0.4121 -0.9010 -0.1355
vn -0.7462 -0.5288 0.4044
vn -0.2680 -0.9265 -0.2642
vn 0.8264 -0.5186 -0.2196
vn 0.2404 0.9702 0.0297
vn 0.7836 0.4809 0.3933
vn 0.5158 0.7724 0.3705
vn 0.5019 0.8612 0.0802
vn 0.8136 0.5739 0.0929
vn -0.3061 0.5555 0.7731
vn -0.2579 -0.1476 0.9548
vn -0.7967 -0.2060 0.5681
vn -0.8602 0.0350 0.5087
vn 0.0795 0.0317 0.9963
vn -0.2310 -0.1148 0.9662
vn 0.1179 0.3617 0.9248
vn -0.4674 0.4517 0.7599
vn -0.3435 -0.0684 0.9367
vn -0.4528 0.4670 0.7595
vn -0.6972 0.3226 0.6402
vn -0.4991 0.7190 0.4836
vn -0.0222 0.5466 0.8371
vn -0.1558 0.4818 -0.8623
vn 0.9409 -0.2611 0.2159
vn -0.0889 -0.9956 -0.0300
vn -0.4443 -0.4698 -0.7628
vn 0.0493 0.2824 -0.9580
vn -0.0704 0.3655 -0.9281
vn 0.1119 0.8340 -0.5402
vn 0.1086 0.8287 -0.5491
vn 0.6656 -0.6296 -0.4007
vn 0.6136 0.7717 -0.1672
vn 0.7778 0.4951 -0.3872
vn 0.7704 0.3284 -0.5465
vn 0.1317 0.3654 -0.9215
vn 0.1865 0.7962 -0.5756
vn 0.7351 0.6615 -0.1487
vn 0.9466 -0.2022 -0.2511
vn 0.5520 -0.5848 -0.5944
vn 0.2562 0.3771 -0.8900
vn 0.8041 -0.4174 -0.4233
vn 0.1203 0.8547 -0.5050
vn -0.2885 0.6801 -0.6740
vn -0.2017 0.8326 -0.5159
vn -0.0211 0.5589 -0.8290
vn -0.9849 0.1002 0.1413
vn -0.9397 0.1643 -0.2999
vn -0.8610 -0.5084 -0.0167
vn -0.8056 -0.5356 0.2531
vn -0.9138 -0.3807 -0.1413
vn -0.8422 -0.4309 0.3241
vn -0.8979 0.4399 -0.0174
vn -0.8649 0.1097 -0.4898
vn -0.4355 0.4884 -0.7562
vn 0.5816 -0.2438 -0.7760
vn 0.8428 -0.2091 -0.4960
vn 0.0995 -0.0394 -0.9943
vn -0.0266 -0.8135 -0.5809
vn 0.1554 -0.6361 -0.7558
vn -0.5427 -0.5889 -0.5989
vn 0.2353 -0.8805 -0.4116
vn 0.0650 -0.9660 0.2503
vn 0.0664 -0.9919 0.1086
vn -0.3670 -0.1801 0.9126
vn -0.7659 -0.3078 0.5645
vn -0.8664 -0.2292 0.4435
vn -0.4878 -0.8516 0.1918
vn -0.5501 -0.7872 0.2788
vn -0.8705 -0.1848 -0.4562
vn -0.9236 -0.1975 0.3285
vn 0.1083 -0.9742 -0.1982
vn -0.1923 -0.9183 -0.3461
vn -0.5497 0.0227 -0.8350
vn 0.4974 0.4897 0.7161
vn 0.4996 -0.8576 0.1221
vn 0.9303 0.2586 -0.2602
vn 0.7369 -0.6532 0.1740
vn 0.6749 -0.0792 0.7336
vn 0.7427 -0.6511 0.1565
vn 0.8525 -0.3759 0.3632
vn 0.7926 -0.3872 0.4710
vn 0.5347 0.0753 -0.8417
vn 0.2881 -0.9527 0.0970
vn 0.7676 0.1736 -0.6170
vn 0.7976 0.4877 -0.3550
vn 0.9736 0.0238 0.2271
vn 0.9571 0.0884 0.2759
vn 0.7141 0.2042 0.6696
vn 0.9435 0.3312 -0.0096
vn -0.0516 0.4102 0.9105
vn 0.5527 0.6936 0.4620
vn 0.3080 0.4766 0.8234
vn -0.0829 -0.2467 -0.9656
vn 0.3987 -0.0881 -0.9129
vn 0.0144 -0.6007 -0.7993
vn 0.3183 -0.5198 -0.7928
vn -0.1298 -0.0084 -0.9915
vn -0.8756 -0.1983 -0.4404
vn -0.1423 -0.7371 -0.6607
vn -0.3051 -0.9366 0.1721
vn 0.1205 -0.9891 -0.0849
vn -0.2088 -0.9771 0.0415
vn -0.4783 -0.1535 -0.8647
vn -0.1036 -0.8754 -0.4723
vn -0.6755 -0.7374 0.0065
vn 0.0065 -0.9806 -0.1960
vn -0.0879 -0.9487 -0.3038
vn -0.2758 -0.4645 -0.8415
vn -0.0272 -0.6181 -0.7856
vn -0.1132 -0.4541 -0.8837
vn -0.9979 -0.0598 0.0267
vn -0.9965 -0.0764 0.0328
vn -0.9601 0.1308 -0.2474
vn -0.8042 0.1656 -0.5709
vn -0.3122 -0.0519 -0.9486
vn -0.7596 -0.2913 -0.5816
vn -0.9854 -0.0382 -0.1662
vn -0.9416 -0.2961 0.1603
vn -0.3330 -0.9429 0.0059
vn -0.4508 -0.8920 -0.0345
vn -0.4636 -0.1751 0.8686
vn -0.4650 -0.8848 0.0289
vn 0.4649 -0.3412 0.8170
vn 0.8248 -0.0571 0.5625
vn -0.6798 -0.7316 -0.0508
vn -0.4756 -0.8796 -0.0044
vn -0.0624 -0.9956 -0.0701
vn -0.1575 -0.9555 -0.2494
vn -0.7344 -0.6376 0.2329
vn -0.8361 -0.2885 0.4665
vn -0.2660 -0.9610 -0.0754
vn 0.9166 -0.0679 -0.3939
vn -0.0808 -0.9958 0.0421
vn -0.9952 0.0519 0.0825
vn -0.1314 -0.9174 -0.3756
vn -0.4579 -0.0361 -0.8883
vn -0.7501 0.5850 -0.3085
vn -0.7685 0.6016 -0.2179
vn -0.5692 -0.8221 0.0139
vn 0.0332 -0.5396 0.8413
vn 0.6112 -0.7773 0.1491
vn 0.4802 0.8768 0.0244
vn 0.8309 0.5247 0.1852
vn 0.6592 0.7076 0.2546
vn 0.4879 -0.3642 -0.7933
vn 0.6867 0.0403 0.7258
vn 0.9678 0.0766 0.2399
vn 0.5958 0.1020 0.7966
vn 0.7525 0.5744 0.3221
vn 0.5896 0.2734 0.7600
vn 0.9945 -0.0939 0.0456
vn 0.0116 0.2019 0.9793
vn 0.9688 -0.2324 0.0865
vn 0.2306 -0.0910 0.9688
vn 0.9998 0.0053 -0.0182
vn 0.6851 0.1226 0.7180
vn 0.9935 -0.0965 -0.0607
vn 0.9935 0.0116 0.1132
vn 0.1368 -0.2705 -0.9530
vn 0.2515 -0.4480 0.8579
vn 0.2634 -0.4609 0.8475
vn 0.3212 -0.9414 0.1029
vn 0.5553 -0.8312 -0.0257
vn 0.3309 -0.9377 0.1058
vn 0.5436 -0.8393 -0.0047
vn 0.3504 -0.9157 -0.1967
vn 0.2599 -0.9493 -0.1768
vn 0.9947 -0.0928 0.0447
vn 0.9922 -0.0897 0.0862
vn 0.8915 0.4382 -0.1149
vn 0.8888 0.4495 0.0898
vn 0.9630 0.1514 -0.2228
vn 0.9947 -0.0570 0.0851
vn 0.9899 -0.1120 0.0864
vn 0.9870 -0.0605 0.1490
vn 0.8250 0.5053 -0.2532
vn 0.7067 -0.2196 0.6726
vn -0.6016 -0.3962 -0.6936
vn -0.0657 -0.2594 -0.9635
vn 0.1083 -0.9754 -0.1922
vn 0.1214 -0.2690 0.9555
vn 0.0103 -0.0442 0.9990
vn -0.5134 -0.2415 -0.8235
vn -0.9369 -0.0842 0.3394
vn -0.7024 -0.3782 -0.6030
vn 0.1925 -0.9590 0.2081
vn -0.9495 -0.2498 0.1897
vn 0.0657 -0.8610 0.5043
vn -0.0484 -0.9139 0.4031
vn -0.0005 -0.9694 0.2455
vn -0.0041 -0.8299 0.5580
vn -0.0033 -0.3045 0.9525
vn 0.2018 -0.9463 -0.2527
vn 0.4776 -0.3333 -0.8129
vn 0.9588 -0.2115 -0.1895
vn 0.3566 -0.2732 -0.8934
vn -0.2488 -0.9590 0.1358
vn -0.1127 -0.2736 0.9552
vn 0.0198 -0.0061 0.9998
vn 0.9047 -0.1491 0.3991
vn 0.3823 -0.1937 0.9035
vn 0.4693 -0.8754 0.1158
vn 0.9677 -0.2485 -0.0426
vn -0.3592 -0.9158 -0.1798
vn 0.2466 -0.4994 0.8306
vn 0.7475 0.1911 -0.6362
vn 0.6254 0.0745 -0.7767
vn 0.0946 -0.0568 -0.9939
vn 0.1608 -0.2214 0.9618
vn 0.9902 -0.1357 0.0344
vn 0.8617 0.5070 0.0224
vn -0.3616 -0.0006 0.9323
vn -0.9928 -0.0869 -0.0820
vn -0.9989 0.0300 -0.0352
vn -0.6731 0.1644 0.7211
vn -0.7611 -0.4591 0.4583
vn -0.6087 0.7859 0.1087
vn -0.6093 0.7287 0.3128
vn -0.7783 0.6127 0.1374
vn -0.6320 0.7198 0.2873
vn -0.8988 0.4259 0.1042
vn -0.9813 -0.1012 0.1635
vn -0.9897 -0.1275 0.0656
vn -0.9885 0.0139 0.1508
vn -0.8903 0.4472 0.0859
vn -0.9059 0.4234 0.0083
vn -0.9938 0.0900 0.0660
vn -0.6814 0.0317 0.7312
vn -0.9479 0.0838 0.3073
vn -0.5205 0.5259 0.6727
vn -0.5926 0.0834 0.8012
vn -0.7781 0.5365 0.3267
vn 0.3650 -0.9053 0.2171
vn 0.2963 0.6017 0.7417
vn 0.2947 0.5371 0.7904
vn -0.3186 0.6968 0.6426
vn -0.3941 0.7264 0.5631
vn 0.0544 0.9984 0.0146
vn 0.2920 0.7494 0.5943
vn 0.0546 0.8531 0.5188
vn -0.0199 0.9975 0.0679
vn 0.4006 0.9066 0.1326
vn 0.3033 0.7519 0.5853
vn -0.4766 0.5593 0.6783
vn 0.2783 0.6266 0.7280
vn -0.3388 0.5218 0.7829
vn -0.3160 -0.9487 -0.0132
vn -0.5743 0.8088 0.1266
vn -0.0284 0.9328 0.3592
vn -0.2484 -0.1169 0.9616
vn 0.2176 -0.1315 0.9671
vn 0.2973 0.4732 -0.8293
vn 0.5751 -0.6604 -0.4829
vn 0.3114 -0.7189 -0.6215
vn 0.7932 0.3615 -0.4901
vn 0.1983 -0.4571 -0.8670
vn 0.1200 -0.1541 -0.9807
vn 0.1190 0.7958 0.5938
vn -0.0118 0.9392 0.3431
vn 0.0282 -0.9974 -0.0670
vn -0.2761 0.9604 0.0373
vn -0.2798 -0.0855 -0.9562
vn 0.7767 -0.1262 -0.6171
vn 0.1447 0.9881 -0.0527
vn 0.4837 0.2173 -0.8479
vn -0.7571 0.3212 -0.5688
vn -0.1920 0.5323 -0.8245
vn 0.0566 0.7176 -0.6942
vn 0.1994 -0.0989 0.9749
vn 0.0765 0.9968 -0.0211
vn 0.9229 -0.1584 0.3509
vn -0.1569 0.9653 0.2089
vn -0.6828 -0.0181 -0.7304
vn -0.8204 0.4760 -0.3168
vn -0.7327 -0.5055 0.4558
vn 0.4641 -0.8274 -0.3163
vn -0.8016 -0.4551 -0.3877
vn -0.1850 0.8717 -0.4537
vn -0.1065 -0.9668 -0.2323
vn 0.1151 -0.9502 -0.2895
vn -0.8862 -0.0662 -0.4586
vn -0.8987 -0.0595 -0.4344
vn 0.1130 0.9715 0.2086
vn -0.2597 0.8155 0.5171
vn 0.0721 0.3563 0.9316
vn -0.2820 0.9518 -0.1210
vn 0.7019 0.2993 -0.6463
vn -0.2208 -0.0831 0.9718
vn 0.7327 0.2749 -0.6225
vn -0.5956 0.5953 -0.5394
vn 0.3458 0.7083 -0.6154
vn -0.3235 0.4624 0.8255
vn -0.1685 -0.9611 0.2188
usemtl Default_OBJ
s off
f 1//1 2//1 3//1
f 4//2 1//2 3//2
f 5//3 3//3 2//3
f 6//4 5//4 7//4
f 8//5 9//5 10//5
f 11//6 12//6 9//6
f 13//7 9//7 8//7
f 11//8 13//8 14//8
f 15//9 13//9 16//9
f 17//10 18//10 19//10
f 18//11 20//11 21//11
f 22//12 23//12 24//12
f 24//13 23//13 25//13
f 26//14 27//14 28//14
f 29//15 30//15 12//15
f 31//16 32//16 33//16
f 31//17 34//17 35//17
f 35//18 32//18 31//18
f 36//19 37//19 38//19
f 29//20 39//20 30//20
f 40//21 41//21 42//21
f 43//22 29//22 44//22
f 40//23 43//23 44//23
f 43//24 40//24 42//24
f 22//25 3//25 45//25
f 46//26 45//26 5//26
f 47//27 10//27 9//27
f 10//28 47//28 46//28
f 30//29 48//29 49//29
f 9//30 30//30 49//30
f 50//31 49//31 48//31
f 47//32 49//32 45//32
f 49//33 47//33 9//33
f 45//34 49//34 50//34
f 45//35 46//35 47//35
f 22//36 45//36 50//36
f 45//37 3//37 5//37
f 51//38 7//38 1//38
f 52//39 53//39 54//39
f 55//40 56//40 52//40
f 57//41 27//41 58//41
f 59//42 28//42 60//42
f 61//43 59//43 60//43
f 62//44 63//44 64//44
f 64//45 63//45 65//45
f 63//46 66//46 67//46
f 68//47 64//47 65//47
f 65//48 69//48 68//48
f 28//49 68//49 69//49
f 68//50 28//50 59//50
f 70//51 68//51 59//51
f 68//52 70//52 64//52
f 28//53 69//53 67//53
f 63//54 67//54 69//54
f 63//55 69//55 65//55
f 62//56 66//56 63//56
f 59//57 71//57 70//57
f 59//58 61//58 72//58
f 59//59 72//59 71//59
f 27//60 60//60 28//60
f 73//61 10//61 51//61
f 73//62 51//62 61//62
f 73//63 58//63 74//63
f 74//64 8//64 73//64
f 58//65 73//65 57//65
f 10//66 73//66 8//66
f 73//67 60//67 57//67
f 60//68 73//68 61//68
f 60//69 27//69 57//69
f 75//70 52//70 56//70
f 53//71 52//71 75//71
f 56//72 15//72 75//72
f 75//73 76//73 53//73
f 77//74 76//74 75//74
f 78//75 36//75 79//75
f 80//76 79//76 38//76
f 38//77 79//77 36//77
f 81//78 82//78 83//78
f 80//79 83//79 82//79
f 82//80 79//80 80//80
f 84//81 79//81 82//81
f 84//82 82//82 85//82
f 82//83 81//83 85//83
f 78//84 79//84 76//84
f 84//85 76//85 79//85
f 86//86 87//86 88//86
f 58//87 87//87 74//87
f 16//88 8//88 89//88
f 48//89 90//89 50//89
f 66//90 90//90 67//90
f 28//91 67//91 91//91
f 86//92 92//92 91//92
f 39//93 93//93 48//93
f 91//94 94//94 86//94
f 94//95 91//95 93//95
f 93//96 39//96 94//96
f 95//97 89//97 94//97
f 86//98 94//98 89//98
f 94//99 96//99 95//99
f 39//100 96//100 94//100
f 67//101 93//101 91//101
f 93//102 67//102 90//102
f 90//103 48//103 93//103
f 28//104 91//104 92//104
f 66//105 23//105 90//105
f 22//106 50//106 90//106
f 90//107 23//107 22//107
f 97//108 77//108 89//108
f 95//109 97//109 89//109
f 98//110 77//110 97//110
f 95//111 98//111 97//111
f 98//112 95//112 78//112
f 76//113 98//113 78//113
f 98//114 76//114 77//114
f 89//115 8//115 74//115
f 89//116 87//116 86//116
f 74//117 87//117 89//117
f 77//118 16//118 89//118
f 58//119 88//119 87//119
f 76//120 84//120 85//120
f 99//121 76//121 85//121
f 76//122 99//122 53//122
f 75//123 15//123 77//123
f 58//124 27//124 26//124
f 26//125 88//125 58//125
f 100//126 101//126 14//126
f 101//127 100//127 55//127
f 14//128 13//128 100//128
f 15//129 100//129 13//129
f 15//130 56//130 100//130
f 55//131 100//131 56//131
f 14//132 101//132 20//132
f 20//133 101//133 21//133
f 102//134 19//134 18//134
f 18//135 21//135 102//135
f 101//136 103//136 104//136
f 21//137 101//137 104//137
f 103//138 105//138 104//138
f 104//139 105//139 54//139
f 106//140 102//140 104//140
f 21//141 104//141 102//141
f 99//142 104//142 54//142
f 104//143 99//143 106//143
f 19//144 102//144 106//144
f 55//145 103//145 101//145
f 52//146 105//146 103//146
f 54//147 105//147 52//147
f 55//148 52//148 103//148
f 46//149 51//149 10//149
f 51//150 46//150 6//150
f 6//151 7//151 51//151
f 51//152 72//152 61//152
f 51//153 1//153 72//153
f 5//154 6//154 46//154
f 31//155 107//155 34//155
f 31//156 33//156 107//156
f 39//157 29//157 108//157
f 108//158 43//158 109//158
f 29//159 43//159 108//159
f 33//160 32//160 110//160
f 111//161 112//161 113//161
f 42//162 113//162 112//162
f 111//163 113//163 114//163
f 42//164 41//164 113//164
f 114//165 113//165 41//165
f 112//166 110//166 109//166
f 107//167 115//167 34//167
f 107//168 33//168 115//168
f 111//169 34//169 115//169
f 115//170 110//170 112//170
f 112//171 111//171 115//171
f 115//172 33//172 110//172
f 109//173 42//173 112//173
f 116//174 110//174 32//174
f 83//175 117//175 81//175
f 38//176 117//176 83//176
f 118//177 119//177 116//177
f 119//178 120//178 110//178
f 110//179 116//179 119//179
f 119//180 117//180 120//180
f 119//181 81//181 117//181
f 81//182 119//182 118//182
f 117//183 121//183 120//183
f 122//184 121//184 117//184
f 121//185 96//185 108//185
f 109//186 121//186 108//186
f 122//187 96//187 121//187
f 120//188 121//188 109//188
f 117//189 38//189 122//189
f 109//190 110//190 120//190
f 108//191 96//191 39//191
f 83//192 80//192 38//192
f 18//193 123//193 124//193
f 123//194 18//194 17//194
f 125//195 123//195 126//195
f 127//196 111//196 128//196
f 34//197 111//197 127//197
f 32//198 35//198 129//198
f 129//199 35//199 34//199
f 129//200 116//200 32//200
f 118//201 116//201 129//201
f 34//202 127//202 129//202
f 127//203 130//203 129//203
f 129//204 130//204 131//204
f 131//205 118//205 129//205
f 127//206 132//206 130//206
f 128//207 132//207 127//207
f 19//208 131//208 17//208
f 131//209 126//209 123//209
f 130//210 126//210 131//210
f 123//211 17//211 131//211
f 131//212 19//212 118//212
f 133//213 132//213 128//213
f 132//214 133//214 134//214
f 130//215 132//215 135//215
f 134//216 135//216 132//216
f 135//217 125//217 126//217
f 126//218 130//218 135//218
f 124//219 123//219 125//219
f 134//220 125//220 135//220
f 96//221 122//221 95//221
f 37//222 95//222 122//222
f 37//223 78//223 95//223
f 128//224 111//224 114//224
f 122//225 38//225 37//225
f 42//226 109//226 43//226
f 136//227 134//227 133//227
f 18//228 124//228 136//228
f 137//229 18//229 136//229
f 136//230 133//230 137//230
f 136//231 124//231 134//231
f 138//232 139//232 140//232
f 12//233 139//233 138//233
f 141//234 140//234 139//234
f 11//235 139//235 12//235
f 11//236 14//236 139//236
f 20//237 18//237 142//237
f 142//238 18//238 137//238
f 137//239 141//239 142//239
f 139//240 14//240 142//240
f 139//241 142//241 141//241
f 142//242 14//242 20//242
f 143//243 137//243 133//243
f 137//244 143//244 141//244
f 143//245 144//245 140//245
f 144//246 143//246 133//246
f 143//247 140//247 141//247
f 128//248 114//248 145//248
f 114//249 41//249 146//249
f 146//250 145//250 114//250
f 146//251 144//251 145//251
f 147//252 140//252 148//252
f 147//253 149//253 138//253
f 149//254 148//254 41//254
f 148//255 149//255 147//255
f 138//256 149//256 44//256
f 44//257 149//257 40//257
f 41//258 40//258 149//258
f 140//259 144//259 148//259
f 146//260 41//260 148//260
f 146//261 148//261 144//261
f 145//262 144//262 128//262
f 140//263 147//263 138//263
f 138//264 44//264 12//264
f 128//265 144//265 133//265
f 48//266 30//266 39//266
f 150//267 26//267 28//267
f 88//268 150//268 86//268
f 86//269 150//269 92//269
f 150//270 28//270 92//270
f 26//271 150//271 88//271
f 78//272 37//272 36//272
f 62//273 23//273 66//273
f 44//274 29//274 12//274
f 99//275 85//275 81//275
f 30//276 9//276 12//276
f 16//277 77//277 15//277
f 25//278 64//278 70//278
f 24//279 70//279 71//279
f 25//280 70//280 151//280
f 70//281 24//281 152//281
f 70//282 152//282 151//282
f 151//283 152//283 25//283
f 25//284 152//284 24//284
f 23//285 62//285 64//285
f 23//286 64//286 25//286
f 71//287 22//287 24//287
f 8//288 16//288 13//288
f 13//289 11//289 9//289
f 125//290 134//290 124//290
f 54//291 53//291 99//291
f 7//292 5//292 2//292
f 1//293 7//293 2//293
f 118//294 106//294 99//294
f 118//295 99//295 81//295
f 153//296 72//296 1//296
f 4//297 153//297 1//297
f 154//298 22//298 71//298
f 154//299 3//299 22//299
f 4//300 3//300 154//300
f 72//301 154//301 71//301
f 155//302 154//302 72//302
f 154//303 155//303 4//303
f 72//304 153//304 155//304
f 156//305 153//305 4//305
f 156//306 155//306 153//306
f 4//307 155//307 156//307
f 19//308 106//308 118//308
